General
Complete name                            : The.Dark.Knight.Rises.2012.BDRiP.XViD.avi
Format                                   : AVI
Format/Info                              : Audio Video Interleave
Format profile                           : OpenDML
File size                                : 1.41 GiB
Duration                                 : 2h 44mn
Overall bit rate                         : 1 229 Kbps
Writing application                      : Lavf53.24.0

Video
ID                                       : 0
Format                                   : xvid
Codec ID                                 : xvid
Duration                                 : 2h 44mn
Bit rate                                 : 1 102 Kbps
Width                                    : 624 pixels
Height                                   : 352 pixels
Display aspect ratio                     : 16:9
Frame rate                               : 23.976 fps
Bits/(Pixel*Frame)                       : 0.209
Stream size                              : 1.27 GiB (90%)

Audio
ID                                       : 1
Format                                   : MPEG Audio
Format version                           : Version 1
Format profile                           : Layer 3
Mode                                     : Joint stereo
Codec ID                                 : 55
Codec ID/Hint                            : MP3
Duration                                 : 2h 44mn
Bit rate mode                            : Constant
Bit rate                                 : 112 Kbps
Channel(s)                               : 2 channels
Sampling rate                            : 48.0 KHz
Compression mode                         : Lossy
Stream size                              : 132 MiB (9%)
Alignment                                : Aligned on interleaves
Interleave, duration                     : 24 ms (0.58 video frame)
Writing library                          : LAME3.98.4

